<svg width="1080" height="1080" viewBox="0 0 1080 1080" fill="none" xmlns="http://www.w3.org/2000/svg">
<g clip-path="url(#clip0_110_34)">
<rect width="1080" height="1080" fill="#232946"/>
<rect width="1080" height="540" fill="#232946"/>
<path d="M540 140C650.457 140 750.457 184.771 822.843 257.157L766.274 313.726C708.366 255.817 628.366 220 540 220C363.269 220 220 363.269 220 540C220 716.731 363.269 860 540 860C716.731 860 860 716.731 860 540H940C940 760.914 760.914 940 540 940C319.086 940 140 760.914 140 540C140 319.086 319.086 140 540 140Z" fill="#F7F2DF"/>
<rect x="40" y="500" width="1000" height="80" fill="#F7F2DF"/>
<rect x="460" y="500" width="160" height="80" fill="#232946"/>
<circle cx="540" cy="540" r="470" stroke="#232946" stroke-width="140"/>
<circle cx="460" cy="540" r="40" fill="#F7F2DF"/>
<circle cx="794.558" cy="285.442" r="40" fill="#F7F2DF"/>
<circle cx="620" cy="540" r="40" fill="#F7F2DF"/>
<rect x="900" y="500" width="40" height="40" fill="#232946"/>
<circle cx="900" cy="540" r="40" fill="#F7F2DF"/>
<circle cx="794.558" cy="794.558" r="70" fill="#F7F2DF" stroke="#232946" stroke-width="60"/>
</g>
<defs>
<clipPath id="clip0_110_34">
<rect width="1080" height="1080" rx="540" fill="white"/>
</clipPath>
</defs>
</svg>
